<svg width="75" height="52" viewBox="0 0 75 52" fill="none" xmlns="http://www.w3.org/2000/svg">
<rect width="51.9774" height="51.9773" rx="25.9887" fill="#F2F2F2"/>
<rect width="75" height="52" rx="26" fill="#1C1B1B"/>
<path d="M46.9263 14.6582H50.4025C52.0593 14.6582 53.4025 16.0014 53.4025 17.6582V39.1646C53.4025 40.832 52.0429 42.1794 50.3755 42.1645L24.3755 41.9312C22.7293 41.9164 21.4025 40.5776 21.4025 38.9313V13.1916C21.4025 11.5348 22.7456 10.1916 24.4025 10.1916H43.9263C45.5831 10.1916 46.9263 11.5348 46.9263 13.1916V34.4816C46.9263 34.9568 47.0392 35.4252 47.2556 35.8482L48.0691 37.4379" stroke="#F2F2F2" stroke-width="2" stroke-linecap="round" stroke-linejoin="round"/>
<path d="M26.7358 28.9513H42.3549" stroke="#F2F2F2" stroke-width="2" stroke-linecap="round" stroke-linejoin="round"/>
<path d="M26.7358 34.3112H42.3549" stroke="#F2F2F2" stroke-width="2" stroke-linecap="round" stroke-linejoin="round"/>
<path d="M35.8789 18.2314H41.9741" stroke="#F2F2F2" stroke-width="2" stroke-linecap="round" stroke-linejoin="round"/>
<path d="M35.8789 22.6983H41.9741" stroke="#F2F2F2" stroke-width="2" stroke-linecap="round" stroke-linejoin="round"/>
<rect x="25.973" y="16.4446" width="6.85714" height="8.03988" stroke="#F2F2F2" stroke-width="2" stroke-linejoin="round"/>
</svg>
